<svg width="864" height="865" version="1.1" viewBox="0 0 864 865" xmlns="http://www.w3.org/2000/svg"><path d="m414.2 791.4c-255.8-10.44-418.4-284.8-306-516.4 120.9-249 468.1-272.7 622.4-42.5 164 244.8-20.59 570.9-316.4 558.9zm54.83-57.43c277-34.16 364-397.6 132.5-553.6-230.6-155.3-533 58.15-464.1 327.6 38.5 150.6 182.7 219.5 303.1 144.7 47.98-29.8 87.07-85.86 49.35-70.77-127.6 51.07-258.4-79.19-207.9-207.2 58.04-147.4 266.6-132.7 306.3 21.63 33.29 129.4-26.76 260.8-146.2 319.8-17.67 8.734-19.75 10.39-18.64 14.82 1.534 6.113 13.61 6.884 45.74 2.922zm-16.35-198.9c83.02-17.72 112.4-121.7 50.71-179.2-67-62.43-176-15.25-176 76.2-.0157 66.97 60.6 116.8 125.3 103z" fill="#06c"/></svg>
