<svg width="68.545mm" height="68.542mm" version="1.1" viewBox="0 0 68.545 68.542" xmlns="http://www.w3.org/2000/svg"><defs><clipPath id="a"><path d="m0 792h612v-792h-612z"/></clipPath></defs><g transform="translate(-23.731 -45.759)"><g transform="matrix(.35278 0 0 -.35278 -34.821 253.69)"><g transform="matrix(4.7902 0 0 -4.7902 168.73 576.71)" fill="none"><g transform="matrix(.92106 0 0 -.92106 -111.35 650.43)" clip-path="url(#a)"><g transform="matrix(1.5371 0 0 1.5371 142.29 665.02)"><path d="m0 0v5.547c5.888 0 10.439 5.828 8.192 12.017-.833 2.292-2.661 4.121-4.954 4.953-6.189 2.246-12.014-2.305-12.015-8.191 0 0 0-.002-.001-.002h-5.547c0 9.38 9.062 16.683 18.89 13.614 4.295-1.34 7.708-4.753 9.049-9.048 3.069-9.829-4.235-18.89-13.614-18.89" fill="#0069ff"/></g><g transform="matrix(1.5371 0 0 1.5371 142.31 673.53)"><path d="m0 0h-5.531v5.53s0 .001.001.001h5.529l.001-.001z" fill="#0069ff" fill-rule="evenodd"/></g><g transform="matrix(1.5371 0 0 1.5371 133.8 666.99)"><path d="m0 0h-4.249l-.001.001v4.249h4.251v-4.249z" fill="#0069ff" fill-rule="evenodd"/></g><g transform="matrix(1.5371 0 0 1.5371 127.27 673.53)"><path d="m0 0h-3.562c-.001 0-.002.001-.002.001v3.56s.001.003.002.003h3.56c.001 0 .002-.001.002-.001z" fill="#0069ff" fill-rule="evenodd"/></g></g></g></g></g></svg>
